<?xml version="1.0" encoding="UTF-8" standalone="no"?>
<!DOCTYPE svg PUBLIC "-//W3C//DTD SVG 1.1//EN" "http://www.w3.org/Graphics/SVG/1.1/DTD/svg11.dtd">
<svg width="100%" height="100%" viewBox="0 0 600 155" version="1.1" xmlns="http://www.w3.org/2000/svg" xmlns:xlink="http://www.w3.org/1999/xlink" xml:space="preserve" xmlns:serif="http://www.serif.com/" style="fill-rule:evenodd;clip-rule:evenodd;">
    <g transform="matrix(1,0,0,0.925407,39.383,1.66218)">
        <g opacity="0.8">
            <g>
                <clipPath id="_clip1">
                    <rect x="41.52" y="31.44" width="42.24" height="131.52" clip-rule="nonzero"/>
                </clipPath>
                <g clip-path="url(#_clip1)">
                    <g transform="matrix(0,-0.75,0.75,0,122.25,91.875)">
                        <path d="M-79.5,-79.5L79.5,-79.5" style="fill:none;fill-rule:nonzero;stroke:black;stroke-width:1.04px;"/>
                    </g>
                    <g transform="matrix(1,0,0,1.08061,0.0481771,-12.6543)">
                        <text x="53.803px" y="161.25px" style="font-family:'Inter-Regular', 'Inter';font-size:7.5px;fill:rgb(51,51,51);">Star<tspan x="68.59px " y="161.25px ">t</tspan></text>
                    </g>
                </g>
            </g>
        </g>
    </g>
    <g transform="matrix(0,-0.688679,0.75,0,281.032,86.0816)">
        <path d="M-79.5,-79.5L79.5,-79.5" style="fill:none;fill-rule:nonzero;stroke:black;stroke-width:1.04px;"/>
    </g>
    <g transform="matrix(1,0,0,1,24.1101,-12.0237)">
        <text x="165.001px" y="161.25px" style="font-family:'Inter-Regular', 'Inter';font-size:7.5px;fill:rgb(51,51,51);">Couple Da<tspan x="201.585px " y="161.25px ">y</tspan>s Later</text>
    </g>
    <g transform="matrix(1,0,0,0.918239,39.5005,1.71838)">
        <g opacity="0.8">
            <g>
                <clipPath id="_clip2">
                    <rect x="278.4" y="31.44" width="43.92" height="131.52" clip-rule="nonzero"/>
                </clipPath>
                <g clip-path="url(#_clip2)">
                    <g transform="matrix(0,-0.75,0.75,0,360,91.875)">
                        <path d="M-79.5,-79.5L79.5,-79.5" style="fill:none;fill-rule:nonzero;stroke:black;stroke-width:1.04px;"/>
                    </g>
                </g>
            </g>
        </g>
    </g>
    <g transform="matrix(1,0,0,1,26.0849,-12.0237)">
        <text x="284.14px" y="161.25px" style="font-family:'Inter-Regular', 'Inter';font-size:7.5px;fill:rgb(51,51,51);">W<tspan x="290.873px " y="161.25px ">e</tspan>ek or so Later</text>
    </g>
    <g transform="matrix(1,0,0,0.918239,39.56,1.88756)">
        <g opacity="0.8">
            <g>
                <clipPath id="_clip3">
                    <rect x="397.68" y="31.44" width="43.92" height="131.52" clip-rule="nonzero"/>
                </clipPath>
                <g clip-path="url(#_clip3)">
                    <g transform="matrix(0,-0.75,0.75,0,479.25,91.875)">
                        <path d="M-79.5,-79.5L79.5,-79.5" style="fill:none;fill-rule:nonzero;stroke:black;stroke-width:1.04px;"/>
                    </g>
                </g>
            </g>
        </g>
    </g>
    <g transform="matrix(1,0,0,1,26.1818,-12.0237)">
        <text x="400.713px" y="161.25px" style="font-family:'Inter-Regular', 'Inter';font-size:7.5px;fill:rgb(51,51,51);">Couple Da<tspan x="437.297px " y="161.25px ">y</tspan>s Later</text>
    </g>
    <g transform="matrix(1,0,0,0.465614,39.6305,70.4602)">
        <g opacity="0.8">
            <g>
                <clipPath id="_clip4">
                    <rect x="516.24" y="31.44" width="43.68" height="131.52" clip-rule="nonzero"/>
                </clipPath>
                <g clip-path="url(#_clip4)">
                    <g transform="matrix(0,-0.75,0.75,0,597.75,91.875)">
                        <path d="M-79.5,-79.5L79.5,-79.5" style="fill:none;fill-rule:nonzero;stroke:black;stroke-width:1.28px;"/>
                    </g>
                </g>
            </g>
        </g>
    </g>
    <g transform="matrix(0.515017,0,0,0.515298,90.9723,81.2103)">
        <text x="254.886px" y="75.219px" style="font-family:'Inter-SemiBold', 'Inter';font-weight:600;font-size:48px;fill:rgb(218,206,243);fill-opacity:0.53;">www<tspan x="371.918px 383.132px 412.448px " y="75.219px 75.219px 75.219px ">.Ya</tspan>mLik<tspan x="549.015px " y="75.219px ">e</tspan>.com</text>
    </g>
    <g transform="matrix(1,0,0,1,13.6703,-12.0237)">
        <text x="524.096px" y="161.25px" style="font-family:'Inter-Regular', 'Inter';font-size:7.5px;fill:rgb(51,51,51);">W<tspan x="530.829px " y="161.25px ">e</tspan>ek or so Later</text>
    </g>
    <g transform="matrix(1,0,0,1,23.5005,-10.6684)">
        <g opacity="0.2">
            <g transform="matrix(0.803751,6.58258e-18,-6.58258e-18,-0.75,-23.95,96)">
                <rect x="0" y="48" width="746.5" height="24" style="fill:rgb(102,102,255);fill-opacity:0.49;"/>
            </g>
        </g>
    </g>
    <g transform="matrix(1,0,0,1,23.95,-12.0237)">
        <g opacity="0.2">
            <g transform="matrix(0.803751,6.58258e-18,-6.58258e-18,-0.75,-23.95,132)">
                <rect x="0" y="72" width="746.5" height="24" style="fill:rgb(102,102,255);fill-opacity:0.49;"/>
            </g>
        </g>
    </g>
    <g transform="matrix(1,0,0,1,23.95,23.9763)">
        <g opacity="0.2">
            <g transform="matrix(0.803751,6.58258e-18,-6.58258e-18,-0.75,-23.95,132)">
                <rect x="0" y="72" width="746.5" height="24" style="fill:rgb(102,102,255);fill-opacity:0.49;"/>
            </g>
        </g>
    </g>
    <g transform="matrix(1,0,0,1,23.95,-12.0237)">
        <g opacity="0.2">
            <g transform="matrix(0.75,0,0,-0.75,6,168)">
                <rect x="0" y="96" width="746.5" height="24" style="fill:white;"/>
            </g>
        </g>
    </g>
    <g transform="matrix(1,0,0,1,23.95,-12.0237)">
        <g opacity="0.2">
            <g transform="matrix(0.75,0,0,-0.75,6,240)">
                <rect x="0" y="144" width="746.5" height="24" style="fill:white;"/>
            </g>
        </g>
    </g>
    <g transform="matrix(1,0,0,1,23.95,-12.0237)">
        <g opacity="0.2">
            <g transform="matrix(0.803751,6.58258e-18,-6.58258e-18,-0.75,-23.95,276)">
                <rect x="0" y="168" width="746.5" height="24" style="fill:rgb(102,102,255);fill-opacity:0.49;"/>
            </g>
        </g>
    </g>
    <g transform="matrix(0.650679,0,0,0.647578,223.033,-173.199)">
        <g transform="matrix(0.155674,-9.26125e-17,1.48534e-16,-0.819716,470.449,1556.07)">
            <rect x="89" y="1411" width="610.5" height="102" style="fill:rgb(138,146,178);fill-opacity:0.72;"/>
        </g>
        <g transform="matrix(1,0,0,1,234.483,299.833)">
            <g transform="matrix(0.999454,0,0,1,0.143177,0)">
                <text x="262.395px" y="26.21px" style="font-family:'Inter-SemiBold', 'Inter';font-weight:600;font-size:7px;fill:rgb(218,206,243);">©2023 Simon Dor<tspan x="323.689px " y="26.21px ">f</tspan>man</text>
            </g>
            <g transform="matrix(0.999454,0,0,1,0.145294,0)">
                <text x="266.275px" y="38.61px" style="font-family:'Inter-SemiBold', 'Inter';font-weight:600;font-size:7px;fill:rgb(218,206,243);">This image is licensed</text>
            </g>
            <g transform="matrix(0.999454,0,0,1,0.15161,0)">
                <text x="277.85px" y="44.81px" style="font-family:'Inter-SemiBold', 'Inter';font-weight:600;font-size:7px;fill:rgb(218,206,243);">under the Creativ<tspan x="336.746px " y="44.81px ">e</tspan></text>
            </g>
            <g transform="matrix(0.999454,0,0,1,0.139464,0)">
                <text x="255.59px" y="51.01px" style="font-family:'Inter-SemiBold', 'Inter';font-weight:600;font-size:7px;fill:rgb(218,206,243);">Commons A<tspan x="296.551px " y="51.01px ">t</tspan>tribution 4<tspan x="334.404px 336.239px " y="51.01px 51.01px ">.0</tspan></text>
            </g>
            <g transform="matrix(0.999454,0,0,1,0.146241,0)">
                <text x="268.01px" y="57.21px" style="font-family:'Inter-SemiBold', 'Inter';font-weight:600;font-size:7px;fill:rgb(218,206,243);">International License.</text>
            </g>
            <g transform="matrix(0.999454,0,0,1,0.141177,0)">
                <text x="258.731px" y="63.41px" style="font-family:'Inter-SemiBold', 'Inter';font-weight:600;font-size:7px;fill:rgb(218,206,243);">Y<tspan x="262.954px " y="63.41px ">o</tspan>u can r<tspan x="289.892px " y="63.41px ">e</tspan>mix this work.</text>
            </g>
            <g transform="matrix(0.999454,0,0,1,0.148789,0)">
                <text x="272.68px" y="69.61px" style="font-family:'Inter-SemiBold', 'Inter';font-weight:600;font-size:7px;fill:rgb(218,206,243);">Get the version with</text>
            </g>
            <g transform="matrix(0.999454,0,0,1,0.156465,0)">
                <text x="286.747px" y="75.81px" style="font-family:'Inter-SemiBold', 'Inter';font-weight:600;font-size:7px;fill:rgb(218,206,243);">la<tspan x="292.455px 296.355px " y="75.81px 75.81px ">ye</tspan>rs f<tspan x="311.356px " y="75.81px ">o</tspan>r easier</text>
            </g>
            <g transform="matrix(0.999454,0,0,1,0.146292,0)">
                <text x="268.104px" y="82.01px" style="font-family:'Inter-SemiBold', 'Inter';font-weight:600;font-size:7px;fill:rgb(218,206,243);">r<tspan x="270.722px " y="82.01px ">e</tspan>mixing,<tspan x="299.293px " y="82.01px "> </tspan>link<tspan x="312.771px " y="82.01px ">e</tspan>d fr<tspan x="328.327px " y="82.01px ">o</tspan>m:</text>
            </g>
            <g transform="matrix(0.999454,0,0,1,0.151276,0)">
                <text x="277.238px" y="94.41px" style="font-family:'Inter-SemiBold', 'Inter';font-weight:600;font-size:7px;fill:rgb(218,206,243);">www<tspan x="294.305px 295.94px 300.215px " y="94.41px 94.41px 94.41px ">.Ya</tspan>mLik<tspan x="320.131px " y="94.41px ">e</tspan>.com</text>
            </g>
        </g>
    </g>
    <g transform="matrix(0.75,0,0,-0.75,45.95,83.9763)">
        <path d="M78,70L231,70C231.398,70 231.78,69.924 232.148,69.772C232.516,69.619 232.84,69.403 233.121,69.121C233.403,68.84 233.619,68.516 233.772,68.148C233.924,67.781 234,67.398 234,67L234,53C234,52.602 233.924,52.22 233.772,51.852C233.619,51.484 233.403,51.16 233.121,50.879C232.84,50.597 232.516,50.381 232.148,50.228C231.78,50.076 231.398,50 231,50L78,50C77.602,50 77.219,50.076 76.852,50.228C76.484,50.381 76.16,50.597 75.879,50.879C75.597,51.16 75.381,51.484 75.228,51.852C75.076,52.219 75,52.602 75,53L75,67C75,67.398 75.076,67.781 75.228,68.148C75.381,68.516 75.597,68.84 75.879,69.121C76.16,69.403 76.484,69.619 76.852,69.772C77.219,69.924 77.602,70 78,70Z" style="fill:rgb(230,159,0);fill-rule:nonzero;stroke:rgb(83,79,188);stroke-width:2px;"/>
    </g>
    <g transform="matrix(0.75,0,0,-0.75,45.95,119.976)">
        <path d="M237,94L389,94C389.398,94 389.78,93.924 390.148,93.772C390.516,93.619 390.84,93.403 391.121,93.121C391.403,92.84 391.619,92.516 391.772,92.148C391.924,91.781 392,91.398 392,91L392,77C392,76.602 391.924,76.22 391.772,75.852C391.619,75.484 391.403,75.16 391.121,74.879C390.84,74.597 390.516,74.381 390.148,74.228C389.78,74.076 389.398,74 389,74L237,74C236.602,74 236.219,74.076 235.852,74.228C235.484,74.381 235.16,74.597 234.879,74.879C234.597,75.16 234.381,75.484 234.228,75.852C234.076,76.22 234,76.602 234,77L234,91C234,91.398 234.076,91.781 234.228,92.148C234.381,92.516 234.597,92.84 234.879,93.121C235.16,93.403 235.484,93.619 235.852,93.772C236.219,93.924 236.602,94 237,94Z" style="fill:rgb(230,159,0);fill-rule:nonzero;stroke:rgb(83,79,188);stroke-width:2px;"/>
    </g>
    <g transform="matrix(0.75,0,0,-0.75,45.95,155.976)">
        <path d="M395,118L548,118C548.398,118 548.78,117.924 549.148,117.772C549.516,117.619 549.84,117.403 550.121,117.121C550.403,116.84 550.619,116.516 550.772,116.148C550.924,115.781 551,115.398 551,115L551,101C551,100.602 550.924,100.22 550.772,99.852C550.619,99.484 550.403,99.16 550.121,98.879C549.84,98.597 549.516,98.381 549.148,98.228C548.78,98.076 548.398,98 548,98L395,98C394.602,98 394.219,98.076 393.852,98.228C393.484,98.381 393.16,98.597 392.879,98.879C392.597,99.16 392.381,99.484 392.228,99.852C392.076,100.22 392,100.602 392,101L392,115C392,115.398 392.076,115.781 392.228,116.148C392.381,116.516 392.597,116.84 392.879,117.121C393.16,117.403 393.484,117.619 393.852,117.772C394.219,117.924 394.602,118 395,118Z" style="fill:rgb(0,158,115);fill-rule:nonzero;stroke:rgb(83,79,188);stroke-width:2px;"/>
    </g>
    <g transform="matrix(0.75,0,0,-0.75,45.95,191.976)">
        <path d="M554,142L706,142C706.398,142 706.78,141.924 707.148,141.772C707.515,141.619 707.84,141.403 708.121,141.121C708.403,140.84 708.619,140.516 708.771,140.148C708.924,139.781 709,139.398 709,139L709,125C709,124.602 708.924,124.219 708.771,123.852C708.619,123.484 708.403,123.16 708.121,122.879C707.84,122.597 707.515,122.381 707.148,122.228C706.78,122.076 706.398,122 706,122L554,122C553.602,122 553.219,122.076 552.852,122.228C552.484,122.381 552.16,122.597 551.879,122.879C551.597,123.16 551.381,123.484 551.228,123.852C551.076,124.219 551,124.602 551,125L551,139C551,139.398 551.076,139.781 551.228,140.148C551.381,140.516 551.597,140.84 551.879,141.121C552.16,141.403 552.484,141.619 552.852,141.772C553.219,141.924 553.602,142 554,142Z" style="fill:rgb(204,121,167);fill-rule:nonzero;stroke:rgb(83,79,188);stroke-width:2px;"/>
    </g>
    <g transform="matrix(0.75,0,0,-0.75,45.95,227.976)">
        <path d="M554,166L706,166C706.398,166 706.78,165.924 707.148,165.772C707.515,165.619 707.84,165.403 708.121,165.121C708.403,164.84 708.619,164.516 708.771,164.148C708.924,163.781 709,163.398 709,163L709,149C709,148.602 708.924,148.22 708.771,147.852C708.619,147.484 708.403,147.16 708.121,146.879C707.84,146.597 707.515,146.381 707.148,146.228C706.78,146.076 706.398,146 706,146L554,146C553.602,146 553.219,146.076 552.852,146.228C552.484,146.381 552.16,146.597 551.879,146.879C551.597,147.16 551.381,147.484 551.228,147.852C551.076,148.22 551,148.602 551,149L551,163C551,163.398 551.076,163.781 551.228,164.148C551.381,164.516 551.597,164.84 551.879,165.121C552.16,165.403 552.484,165.619 552.852,165.772C553.219,165.924 553.602,166 554,166Z" style="fill:rgb(204,121,167);fill-rule:nonzero;stroke:rgb(83,79,188);stroke-width:2px;"/>
    </g>
    <g transform="matrix(0.75,0,0,-0.75,45.95,263.976)">
        <path d="M554,190L706,190C706.398,190 706.78,189.924 707.148,189.772C707.515,189.619 707.84,189.403 708.121,189.121C708.403,188.84 708.619,188.516 708.771,188.148C708.924,187.781 709,187.398 709,187L709,173C709,172.602 708.924,172.22 708.771,171.852C708.619,171.484 708.403,171.16 708.121,170.879C707.84,170.597 707.515,170.381 707.148,170.228C706.78,170.076 706.398,170 706,170L554,170C553.602,170 553.219,170.076 552.852,170.228C552.484,170.381 552.16,170.597 551.879,170.879C551.597,171.16 551.381,171.484 551.228,171.852C551.076,172.22 551,172.602 551,173L551,187C551,187.398 551.076,187.781 551.228,188.148C551.381,188.516 551.597,188.84 551.879,189.121C552.16,189.403 552.484,189.619 552.852,189.772C553.219,189.924 553.602,190 554,190Z" style="fill:rgb(204,121,167);fill-rule:nonzero;stroke:rgb(83,79,188);stroke-width:2px;"/>
    </g>
    <g transform="matrix(1,0,0,1,38.8133,-12.0237)">
        <text x="302.695px" y="88.716px" style="font-family:'Inter-Bold', 'Inter';font-weight:700;font-size:7px;fill:white;">Open Business Checking A<tspan x="394.899px " y="88.716px ">c</tspan>count</text>
    </g>
    <g transform="matrix(1,0,0,1,158.063,1.85126)">
        <text x="314.864px" y="93.67px" style="font-family:'Inter-Bold', 'Inter';font-weight:700;font-size:7px;fill:white;">Open Institutional A<tspan x="382.73px " y="93.67px ">c</tspan>count</text>
    </g>
    <g transform="matrix(1,0,0,1,158.063,19.8513)">
        <text x="314.864px" y="93.67px" style="font-family:'Inter-Bold', 'Inter';font-weight:700;font-size:7px;fill:white;">Open Institutional A<tspan x="382.73px " y="93.67px ">c</tspan>count</text>
    </g>
    <g transform="matrix(1,0,0,1,158.063,37.8513)">
        <text x="314.864px" y="93.67px" style="font-family:'Inter-Bold', 'Inter';font-weight:700;font-size:7px;fill:white;">Open Institutional A<tspan x="382.73px " y="93.67px ">c</tspan>count</text>
    </g>
    <g transform="matrix(1,0,0,1,-79.4784,-30.0237)">
        <text x="321.576px" y="88.716px" style="font-family:'Inter-Bold', 'Inter';font-weight:700;font-size:7px;fill:white;">Cr<tspan x="329.518px " y="88.716px ">e</tspan>ate Checkbook LL<tspan x="394.682px " y="88.716px ">C</tspan></text>
    </g>
    <g transform="matrix(1,0,0,1,-198.728,-47.9237)">
        <text x="302.777px" y="88.716px" style="font-family:'Inter-Bold', 'Inter';font-weight:700;font-size:7px;fill:white;">Open T<tspan x="327.101px 329.852px " y="88.716px 88.716px ">ra</tspan>ditional Self Dir<tspan x="385.748px " y="88.716px ">e</tspan>cted IRA</text>
    </g>
    <g transform="matrix(1,0,0,1,-9.69325,-14.0237)">
        <text x="13.5px" y="65.045px" style="font-family:'Inter-Bold', 'Inter';font-weight:700;font-size:9px;fill:rgb(51,51,51);">IRA Compan<tspan x="67.582px " y="65.045px ">y</tspan></text>
        <text x="13.5px" y="92.045px" style="font-family:'Inter-Bold', 'Inter';font-weight:700;font-size:9px;fill:rgb(51,51,51);">Bank or Cr<tspan x="59.078px " y="92.045px ">e</tspan>dit Union</text>
        <text x="13.5px" y="110.045px" style="font-family:'Inter-Bold', 'Inter';font-weight:700;font-size:9px;fill:rgb(51,51,51);">CEX 1 (e.g.<tspan x="60.544px " y="110.045px "> </tspan>Coinbase)</text>
        <text x="13.5px" y="128.045px" style="font-family:'Inter-Bold', 'Inter';font-weight:700;font-size:9px;fill:rgb(51,51,51);">CEX 2 (e.g.<tspan x="61.809px " y="128.045px "> </tspan>Kr<tspan x="73.64px 78.861px 83.89px " y="128.045px 128.045px 128.045px ">ake</tspan>n)</text>
        <text x="13.5px" y="146.045px" style="font-family:'Inter-Bold', 'Inter';font-weight:700;font-size:9px;fill:rgb(51,51,51);">CEX 3 (e.g.<tspan x="62.075px " y="146.045px "> </tspan>Gemini<tspan x="95.384px " y="146.045px ">)</tspan></text>
    </g>
    <g transform="matrix(1,0,0,1,-250.782,-15.2981)">
        <g transform="matrix(13.5,0,0,13.5,779.42,35.1834)">
            <path d="M0.098,-0.364C0.098,-0.452 0.11,-0.534 0.133,-0.608C0.157,-0.683 0.192,-0.752 0.239,-0.815L0.36,-0.815C0.342,-0.792 0.325,-0.763 0.309,-0.729C0.294,-0.695 0.28,-0.658 0.269,-0.617C0.257,-0.577 0.248,-0.535 0.242,-0.492C0.235,-0.449 0.232,-0.406 0.232,-0.364C0.232,-0.308 0.238,-0.251 0.249,-0.193C0.26,-0.136 0.275,-0.082 0.295,-0.033C0.314,0.016 0.336,0.056 0.36,0.087L0.239,0.087C0.192,0.024 0.157,-0.045 0.133,-0.119C0.11,-0.194 0.098,-0.275 0.098,-0.364Z" style="fill:rgb(51,51,51);fill-rule:nonzero;"/>
        </g>
        <text x="276.545px" y="35.183px" style="font-family:'Inter-SemiBold', 'Inter';font-weight:600;font-size:13.5px;fill:rgb(51,51,51);">Open A<tspan x="324.565px " y="35.183px ">c</tspan>count<tspan x="369.829px " y="35.183px ">s</tspan> wit<tspan x="400.701px " y="35.183px ">h</tspan> an IRA compan<tspan x="509.564px 516.88px 520.558px " y="35.183px 35.183px 35.183px ">y, </tspan>a Bank,<tspan x="571.24px " y="35.183px "> </tspan>&amp; some Centr<tspan x="662.603px " y="35.183px ">a</tspan>liz<tspan x="684.773px " y="35.183px ">e</tspan>d Ex<tspan x="720.152px " y="35.183px ">c</tspan>hanges <tspan x="784.733px " y="35.183px ">C</tspan>EXs)</text>
    </g>
</svg>
